<?xml version="1.0" encoding="UTF-8"?><svg id="_レイヤー_2" xmlns="http://www.w3.org/2000/svg" viewBox="0 0 35 35"><defs><style>.cls-1{fill:#231815;}.cls-2{fill:#fff;}</style></defs><g id="design"><path class="cls-2" d="M34.57,17.55c0,9.44-7.64,17.09-17.08,17.1-9.44,0-17.09-7.64-17.1-17.08C.38,8.13,8.03.48,17.47.47h0c9.43,0,17.08,7.64,17.09,17.07h0s.01.01.01.01Z"/><path class="cls-1" d="M17.48,35C7.81,34.99-.01,27.14,0,17.48.01,7.81,7.86-.01,17.52,0c9.66.01,17.49,7.86,17.48,17.52,0,0,0,.02,0,.03h0c-.04,9.65-7.87,17.45-17.52,17.45ZM17.48.83C8.27.85.83,8.33.85,17.54c.02,9.21,7.5,16.65,16.71,16.63,9.17-.02,16.6-7.45,16.63-16.62h0c.02-9.22-7.44-16.7-16.66-16.72-.02,0-.03,0-.05,0Z"/><path class="cls-1" d="M7.29,21.82c0,.25,0,.5-.66.5-.46,0-1.44-.13-1.44-1.18s.57-1.9,2.1-2.55v3.23ZM7.29,13.53h-3.43v1.47h3.43v2.1c-2,.67-3.6,2.23-3.6,4,.08,1.55,1.4,2.74,2.95,2.67h.22c2,0,2-1.19,2-1.67v-4c.7-.17,1.42-.24,2.14-.22.58,0,3,0,3,2.26,0,2.54-2.77,2.5-4.46,2.48l.34,1.44c2.82.07,5.7-.63,5.7-3.81,0-3.78-3.84-3.78-4.49-3.78-.75,0-1.5.08-2.24.23v-1.7h3.1v-1.45h-3.11v-1.63h-1.54v1.61ZM11.84,12.72c1.3.96,2.33,2.23,3,3.7l1.35-.87c-.72-1.52-1.82-2.83-3.2-3.8l-1.15.97Z"/><path class="cls-1" d="M24.19,19.74c.85-.85,1.35-1.59,1.52-4h1.14v2.38c-.05.49.3.94.79,1h1.72v1.12h-6.1v-4.5h1.17c.08,1.09-.32,2.15-1.1,2.91l.86,1.09ZM21.59,13.11h2.84v1.44h-2.5v10.08h1.34v-.57h6.1v.57h1.31v-10.08h-2.62v-1.44h3.13v-1.33h-9.63l.03,1.33ZM26.85,13.11v1.44h-1.15v-1.44h1.15ZM29.36,15.74v2.26h-.9c-.22,0-.41,0-.41-.39v-1.87h1.31ZM29.36,21.49v1.25h-6.1v-1.25h6.1ZM18.15,12.49c.82.42,1.59.93,2.3,1.51l.88-1.26c-.74-.56-1.55-1.03-2.4-1.41l-.78,1.16ZM17.65,16.44c.83.37,1.6.85,2.29,1.44l.87-1.34c-.77-.55-1.6-1-2.48-1.35l-.68,1.25ZM20.08,18.76c-.59,1.63-1.42,3.16-2.47,4.53l1.05,1.35c1.09-1.58,1.98-3.29,2.65-5.09l-1.23-.79Z"/><path class="cls-1" d="M23.19,6.55c.03.24.08.47.15.7.41.01.81-.04,1.2-.15l.17.69c-.37.09-.74.14-1.12.14.16.36.38.7.64,1l-.7.32c-.28-.41-.51-.85-.7-1.31h-1.93v-.67h1.69c-.07-.27-.1-.41-.15-.65l.75-.07ZM22.59,8.86c-.25.08-.78.24-.78.61s.46.38,1.17.38c.41.01.83,0,1.24-.06v.7h-1.03c-.54.06-1.08-.02-1.57-.25-.29-.15-.48-.46-.48-.79,0-.79.92-1.09,1.17-1.17l.28.58Z"/><path class="cls-1" d="M26.44,6.61c-.12.66-.17,1.33-.16,2-.01.6.05,1.19.18,1.77l-.74.1c-.11-.58-.16-1.16-.15-1.75,0-.71.05-1.42.15-2.13h.72ZM28,7.41v-.86h.74v.87h.75v.67h-.73c.06.52,0,1.04-.2,1.53-.35.54-.93.88-1.57.91l-.31-.65c1.27-.2,1.38-.5,1.36-1.79h-1.37v-.67h1.33Z"/></g></svg>