<?xml version="1.0" encoding="UTF-8"?><svg id="_レイヤー_2" xmlns="http://www.w3.org/2000/svg" viewBox="0 0 35 35"><defs><style>.cls-1{fill:#231815;}.cls-2{fill:#fff;}</style></defs><g id="design"><circle class="cls-2" cx="17.5" cy="17.5" r="17.5"/><path class="cls-1" d="M18.48,12.38c.79.27,1.45.71,1.53,1.5l.31,2.76-2.51,10,4.14-6.7,1.6,6.7,1.41-9.67s-2.16-.08-2.92-.08c-2.09-.1,0-.42,0-.42l2.95-.38-.58-2c-.24-.88-.56-1.74-.94-2.57-.26-.58-1.12-.48-2-.5h-7.83s4.65,1.29,4.84,1.36Z"/><path class="cls-1" d="M23.06,8.65c.05.96-.69,1.78-1.65,1.82-.96.05-1.78-.69-1.82-1.65-.05-.94.67-1.75,1.61-1.82h.12c.93,0,1.7.72,1.75,1.65Z"/><path class="cls-1" d="M15.11,13.35c-.09-.11-.82-.9-.94-1-.12-.1-.17-.2-.44,0-.27.2-2.31,2.1-2.59,2.37-.28.27-.2.42-.08.54.12.12.73.79.88.94.15.15.27.23.55,0,.28-.23,2.33-2.13,2.59-2.36s.11-.37.03-.49Z"/><path class="cls-1" d="M19.4,4.08c.12.06.31,0,.73-.08,0-.34.03-.67.1-1-.48-.01-.91.27-1.1.71-.05.14.02.3.16.35,0,0,0,0,0,0l.1.02Z"/><path class="cls-1" d="M5.67,10.28c-.05-.18-.13-.35-.24-.51-.31-.48-.72-.9-1.19-1.22-.39.67-.22,1.53.4,2,.28.26.72.26,1,0,.02-.09.04-.18.03-.27Z"/><path class="cls-1" d="M17.51,0C7.85,0,0,7.83,0,17.49c0,9.66,7.83,17.5,17.49,17.51,9.65,0,17.48-7.8,17.51-17.45h0C35.01,7.89,27.17.05,17.51.04V0ZM30.58,7.44c.11,0,.22.07.27.17,0,.08.13.27,0,.38s-.1.07-.28.1c-.46.19-.9.42-1.32.69-.37.26-.73.54-1.06.85-.09.09-.24.09-.33,0h0s-.05-.05-.06-.08c-.19-.24.08-.48.14-.58.33-.3.69-.57,1.08-.8.48-.32,1.02-.57,1.58-.73h-.02ZM23.96,5c.42-.53,1.2-.41,2-.11,0-.19.17-.72.22-1.1s.05-.46.1-.52c.12-.12.31-.12.42,0,0,0,0,0,0,0h0c.17.11.15.29.13.47s-.19.87-.32,1.33c.44.18.87.38,1.29.61.27.24.13.41.12.46s-.31,0-.39,0l-.39-.14c-1.49-.73-2.34-.92-2.65-.54-.31.38.3,1,.77,1.34.38.3.79.58,1.21.83.11,0,.22.07.28.16.11.07.16.21.11.33h0c-.16.06-.34.06-.5,0-.51-.3-.99-.63-1.44-1-.41-.31-.75-.71-1-1.17-.2-.29-.19-.67.03-.95h0ZM18.52,3.6c.2-.84,1.2-1.1,1.82-1.1,0-.13.03-.25.07-.37-.29-.06-.57-.1-.85-.13h0c-.15,0-.41-.06-.35-.33,0-.1.07-.17.17-.18h.37c.29.05.57.12.85.21.13-.4.14-.43.19-.49.05-.1.16-.15.27-.13.12-.01.23.08.24.2,0,.03,0,.06-.01.09v.12c-.02.1-.05.2-.1.29.4.08.73.13,1.1.19l.64.1c.14,0,.26.12.26.26h0c-.01.14-.13.26-.27.26h0c-.21,0-1.1-.19-1.86-.34,0,0-.06.23-.06.27.16-.01.31.01.46.07,1.16.25,1.81,1,1.62,1.8-.28.79-1.12,1.23-1.92,1-.05,0-.32-.06-.25-.31s.28-.21.4-.19c.48.11.98-.15,1.16-.61.04-.35-.14-.7-.45-.87-.29.43-.69.78-1.16,1q.05.2,0,.26c-.07.14-.22.22-.37.2-.12-.03-.21-.14-.21-.26-.31.14-.67.17-1,.09-.46-.04-.79-.44-.76-.9h0s-.01-.09,0-.13v-.07ZM29.72,17.55c.01,6.75-5.46,12.24-12.21,12.25-6.75.01-12.24-5.46-12.25-12.21-.01-6.75,5.46-12.24,12.21-12.25h0c6.76-.01,12.24,5.45,12.26,12.21h-.01ZM6.97,26.17l-1.17,1c-.14.14-.3.27-.55,0-.25-.27-.12-.44,0-.56l1.17-1c.16-.13.3-.23.56.06s.14.44,0,.55v-.05ZM17.06,4.49c-.42.24-.9.37-1.38.4-.34.06-.68.03-1-.09-.51-.29,0-.91,0-.91,0,0,.21-.22.36-.12.15.1.2.17.12.36-.04.11,0,.24.11.3.22,0,.44-.03.66-.07.32-.07.63-.17.93-.3.19-.09.37-.09.43,0,.07.14.02.32-.12.39-.01,0-.03.01-.05.02l-.06.02ZM15.11,3.05c-.25,0-.35,0-.44-.07-.04-.06-.07-.12-.09-.18-.02-.16.1-.3.26-.32,0,0,0,0,.01,0h.46c.3-.02.59-.06.88-.12h.36c.2-.01.38.13.41.33,0,.22-.09.39-.56.68-.14.1-.29.15-.46.16-.11.02-.22-.06-.24-.18,0,0,0,0,0,0h0c0-.1,0-.16.5-.44-.36.11-.73.19-1.1.25v-.11ZM16.56.91s.06-.02.09,0c.07,0,.1,0,.17.1s.22.32.23.4c0,.1-.07.18-.16.2-.11,0-.14,0-.24-.22-.08-.1-.13-.22-.14-.34,0-.05.02-.09.06-.11v-.03ZM16.11,1.05c.2,0,.4.34.4.53s-.07.17-.2.17-.12,0-.14-.06c-.09-.14-.16-.29-.21-.45,0,0,0-.18.15-.18h0ZM13.06,2.05c.22,0,.45-.06.68-.1v-.6c-.02-.14.07-.27.21-.3h0c.2,0,.32.07.33.25.01.16.01.33,0,.49.38-.07,1.12-.15,1.16-.15.21,0,.36-.07.4.2s-.81.32-1.6.5c-.09.78-.24,1.55-.45,2.3-.1.36-.18.54-.4.56-.14.03-.28-.06-.31-.2,0,0,0,0,0,0h0c0-.16.04-.31.11-.45.22-.69.39-1.4.48-2.12-.18.05-.37.08-.56.1-.16,0-.44.06-.47-.21s.29-.32.42-.32v.05ZM8.19,3.79c.14-.09.34-.14.43,0s0,0,.1.65c0,.1.05.73.06.87.09-.22.25-.4.45-.52.22-.2.55-.23.8-.07.12.08.21.19.29.31l.35.47c.12.21.23.35.49.18.42-.33.07-1.07,0-1.46-.07-.23-.12-.34.06-.46.13-.08.3-.04.39.09,0,0,0,0,0,0h0c.19.25.77,1.77-.13,2.3-.26.19-.6.24-.91.14-.16-.11-.31-.25-.42-.41l-.31-.5c-.1-.11-.21-.3-.47-.11-.3.29-.45.69-.42,1.1,0,.34.03.67.09,1,0,.34.05.4-.14.5-.13.11-.32.11-.45,0-.1-.29-.14-.59-.13-.89-.09-1-.13-1.53-.3-2.8-.05-.15.01-.33.15-.41h.02ZM4.03,7.79c.48-.94,1.64-1.32,2.58-.84h0c.06.02.11.05.16.09.8.7.91,1.91.25,2.74-.2.28-.41.18-.43.15-.13-.09-.17-.27-.07-.4,0,0,0,0,0,0v.03c.48-.56.42-1.41-.14-1.89,0,0,0,0,0,0h-.07c-.6-.35-1.37-.19-1.77.38v.06c1.31.94,2,2,1.54,2.79-.41.56-1.2.68-1.76.27h0c-.99-.81-1.14-2.26-.33-3.25.02-.03.04-.05.07-.08l-.03-.04ZM9.38,28.33l-1.19,1.1c-.37.37-.91.52-1.42.38-.76-.25-1.45-.68-2-1.27,0-.06-.28-.33-.08-.53.2-.2.39,0,.54.2.44.49,1.04.82,1.69.94.11,0,.34,0,.81-.39l1.13-1c.15-.12.18-.16.32-.12.09.04.18.09.25.16.08.1.13.21.14.34,0,.09,0,.14-.16.23l-.03-.04ZM14.19,31.3c-.11.27-.42.14-.67,0l-.32-.13-.23.63c-.16.37-.49.64-.88.73-.64.13-1.3.1-1.92-.09-.26-.09-.33-.27-.27-.43s.29-.1.45-.08c.44.1.91.1,1.35,0,.41-.13.5-.36.65-.79l.13-.29-1.38-.54-.23.6c-.1.18-.11.23-.23.26-.09.03-.2.03-.29,0-.13-.04-.24-.12-.32-.22-.01-.1,0-.2.06-.29l.25-.62-.31-.09c-.33-.12-.53-.26-.42-.54s.43-.22.67-.12l.35.12.14-.37c.09-.18.11-.22.22-.25.1-.04.2-.04.3,0,.12.04.22.12.29.23,0,.1-.02.19-.07.28l-.14.39,1.4.53.14-.37c.07-.19.11-.23.21-.26.1-.03.2-.03.3,0,.12.05.22.14.28.25,0,.09-.02.18-.07.26l-.15.39.31.11c.24.13.56.28.4.64v.06ZM17.9,31.87v2.08c0,.21,0,.41-.44.36-.44-.05-.4-.2-.4-.41v-1.66c-.6.27-1.24.43-1.89.48-.33,0-.32-.19-.3-.31s.09-.19.37-.29c.93-.16,1.83-.48,2.65-.94.26-.16.51-.34.74-.54.1-.1.24-.15.38-.13.15-.01.29.1.3.26,0,0,0,0,0,.01h0v.06c0,.22-.69.68-1.4,1v.03ZM23.9,32.38c-.39.46-.84.85-1.35,1.17h-.06c-.24.12-.4.06-.49-.13s.09-.3.2-.37c.95-.46,1.63-1.33,1.86-2.36.08-.33.08-.67,0-1-.07-.1-.12-.1-.27,0l-1.58.74c-.13.67-.48,1.28-1,1.73-.11.09-.26.09-.37,0h0s-.01-.05,0-.08c0-.1,0-.17.07-.34.35-.46.57-1.01.63-1.58l.81-.4.2-.07,1.3-.63c.43-.17.67-.07.84.28.32,1.1.06,2.28-.69,3.14l-.1-.1ZM27.5,30.88c-.01.13-.07.26-.17.35-.12.13-.31.16-.46.07-.05-.1-.05-.22,0-.32.15-.83-.15-1.68-.8-2.22-.15-.17-.32-.33-.5-.48,0,0-.2-.2.08-.45.13-.15.27-.17.36-.1s.36.33.53.51c.76.65,1.14,1.65,1,2.64h-.04ZM29.18,29.48c-.12.15-.31.23-.5.22-.1-.06-.2-.13-.28-.21l-1.88-2c-.16-.15-.2-.17-.18-.27.02-.09.07-.18.14-.25.08-.08.19-.12.3-.11.07,0,.11,0,.23.17l1.73,1.79c.05.1.1.13.18,0,.17-.4.21-.85.11-1.28-.06-.23-.13-.45-.23-.66-.1-.13-.07-.32.06-.42h0s.26-.27.46-.08c.19.3.31.64.36,1,.11.75-.09,1.5-.55,2.1h.05ZM32.1,11.37c-.08.03-.18.03-.26,0-.09,0-.14-.13-.21-.26l-.25-.36-1,.63c.03.31.03.61,0,.92-.02.1-.07.19-.15.25-.15.06-.32,0-.4-.13-.05-.08,0-.15,0-.26.01-.16.01-.33,0-.49-.21.09-.45.07-.65-.05-.21-.13-.38-.31-.5-.52-.33-.57-.4-1.16.15-1.51.55-.35.91.06,1.16.48.13.21.22.44.28.68l.78-.52-.72-1.13-.06-.07c-.13-.25-.06-.36.06-.46.12-.1.37.07.47.25l.73,1.18.25-.19c.15-.1.32-.23.46,0,.14.23,0,.38-.16.48l-.24.16.24.38c.13.18.24.4,0,.53h.02Z"/><path class="cls-1" d="M29.13,10.17c-.11.1-.25.3,0,.67.25.37.48.32.65.24.02-.22-.04-.45-.17-.63-.04-.09-.23-.45-.48-.28Z"/><path class="cls-1" d="M21.38,3.09c-.19-.05-.38-.08-.57-.09,0,.24-.06.48-.08.73.25-.17.47-.39.65-.64Z"/><path class="cls-1" d="M17.51,16.94c0-.16-.06-.26-.13-.26h-7.77c-.08,0-.14.1-.14.26s.06.23.14.23h.23l.32,2.49h0l.07.53h0l.78,6.42h5l.43-3.61h0l.07-.53h0l.25-2.26h0l.05-.53h0l.29-2.49h.27c.09-.05.15-.15.14-.25ZM10.38,17.17h1.61l.07,2.49h-1.38l-.3-2.49ZM10.75,20.17h1.31l.06,2.26h-1.06l-.31-2.26ZM11.45,26.07l-.39-3.07h1l.08,3.11-.69-.04ZM13.92,26.07h-1.17l-.09-3.07h1.34l-.08,3.07ZM14.06,22.44h-1.4l-.06-2.26h1.46v2.26ZM14.06,19.66h-1.47v-2.49h1.6l-.13,2.49ZM15.53,26.09h-1.08l.07-3.1h1.37l-.36,3.1ZM15.96,22.45h-1.43l.06-2.26h1.6l-.23,2.26ZM16.29,19.66h-1.68l.06-2.49h1.92l-.3,2.49Z"/></g></svg>