<?xml version="1.0" encoding="UTF-8"?><svg id="_レイヤー_2" xmlns="http://www.w3.org/2000/svg" viewBox="0 0 34.79 49.05"><defs><style>.cls-1{fill:#f9c500;}</style></defs><g id="design"><path class="cls-1" d="M30.23,12.4c-1.54-.02-3,.73-3.87,2V6.17c-.01-2.35-1.91-4.25-4.26-4.27-.69,0-1.38.15-2,.45-1.16-2.15-3.83-2.98-6-1.84h-.06c-.79.4-1.44,1.05-1.84,1.84-.63-.29-1.31-.44-2-.44-2.01-.01-3.77,1.36-4.24,3.31-.51-.18-1.05-.27-1.59-.27-2.37-.04-4.32,1.83-4.37,4.2v20.31c.15,5.94,1.56,10.63,4.17,14,2.93,3.71,7.36,5.59,13.1,5.59s10.53-2.1,13.52-6.24c2.66-3.71,4-9,4-15.68v-10.27c-.05-2.48-2.1-4.46-4.59-4.41,0,0,0,0,0,0l.03-.05ZM33.1,27.12c0,6.34-1.25,11.31-3.71,14.74-2.64,3.65-6.72,5.51-12.09,5.51s-9.19-1.68-11.8-5c-2.36-3-3.64-7.35-3.8-12.83V9.19c.04-1.42,1.2-2.56,2.62-2.58h0c.53,0,1.05.16,1.5.44v16.25c.01.47.4.85.87.84.47,0,.86-.37.88-.84V6.15c.02-1.43,1.19-2.57,2.62-2.56.52,0,1.03.16,1.45.46v17.3c-.03.47.32.88.79.91,0,0,0,0,0,0,.45.07.87-.25.94-.7h0c.01-.06.01-.11,0-.17V4.26c0-.32.07-.63.19-.92h0c.45-.99,1.45-1.62,2.54-1.6,1.1-.01,2.08.65,2.49,1.67-.69.77-1.07,1.77-1.06,2.8v15.06c.05.47.47.82.94.77h0c.41-.04.74-.36.8-.77V6.15c0-.73.32-1.42.87-1.89h0c1.1-.96,2.75-.89,3.77.15.46.47.71,1.1.7,1.76v16.16c.13.74.82,1.23,1.56,1.11.65-.08,1.15-.62,1.17-1.28v-5.3c.32-1.55,1.82-2.56,3.38-2.27,1.15.16,2.09,1.01,2.38,2.14v10.44-.05Z"/><path d="M30.23,12.4c-1.54-.02-3,.73-3.87,2V6.17c-.01-2.35-1.91-4.25-4.26-4.27-.69,0-1.38.15-2,.45-1.16-2.15-3.83-2.98-6-1.84h-.06c-.79.4-1.44,1.05-1.84,1.84-.63-.29-1.31-.44-2-.44-2.01-.01-3.77,1.36-4.24,3.31-.51-.18-1.05-.27-1.59-.27-2.37-.04-4.32,1.83-4.37,4.2v20.31c.15,5.94,1.56,10.63,4.17,14,2.93,3.71,7.36,5.59,13.1,5.59s10.53-2.1,13.52-6.24c2.66-3.71,4-9,4-15.68v-10.27c-.05-2.48-2.1-4.46-4.59-4.41,0,0,0,0,0,0l.03-.05ZM33.1,27.12c0,6.34-1.25,11.31-3.71,14.74-2.64,3.65-6.72,5.51-12.09,5.51s-9.19-1.68-11.8-5c-2.36-3-3.64-7.35-3.8-12.83V9.19c.04-1.42,1.2-2.56,2.62-2.58h0c.53,0,1.05.16,1.5.44v16.25c.01.47.4.85.87.84.47,0,.86-.37.88-.84V6.15c.02-1.43,1.19-2.57,2.62-2.56.52,0,1.03.16,1.45.46v17.3c-.03.47.32.88.79.91,0,0,0,0,0,0,.45.07.87-.25.94-.7h0c.01-.06.01-.11,0-.17V4.26c0-.32.07-.63.19-.92h0c.45-.99,1.45-1.62,2.54-1.6,1.1-.01,2.08.65,2.49,1.67-.69.77-1.07,1.77-1.06,2.8v15.06c.05.47.47.82.94.77h0c.41-.04.74-.36.8-.77V6.15c0-.73.32-1.42.87-1.89h0c1.1-.96,2.75-.89,3.77.15.46.47.71,1.1.7,1.76v16.16c.13.74.82,1.23,1.56,1.11.65-.08,1.15-.62,1.17-1.28v-5.3c.32-1.55,1.82-2.56,3.38-2.27,1.15.16,2.09,1.01,2.38,2.14v10.44-.05Z"/><path class="cls-1" d="M30.23,14.05c-1.57-.03-2.88,1.22-2.91,2.79,0,0,0,0,0,.01v5.36c-.05.76-.72,1.33-1.48,1.28-.62-.04-1.13-.5-1.25-1.11V6.17c-.03-1.44-1.23-2.59-2.67-2.56-.65,0-1.28.23-1.77.65h0c-.55.47-.87,1.16-.87,1.89v15.12c-.05.48-.49.83-.97.78-.41-.04-.74-.37-.78-.78V6.17c-.01-1.03.37-2.03,1.06-2.8-.56-1.34-2.08-2-3.44-1.48-.7.25-1.26.79-1.54,1.48h0c-.11.29-.17.59-.19.89v17.08c.05.46-.28.87-.73.92,0,0-.01,0-.02,0h0c-.47.08-.92-.24-1-.72,0,0,0,0,0-.01V4.05c-.43-.28-.94-.42-1.45-.42-1.42-.02-2.6,1.1-2.64,2.52v17.09c0,.46-.39.84-.85.83,0,0,0,0-.01,0h0c-.47.02-.86-.34-.88-.81V7.05c-.44-.26-.94-.4-1.45-.39-1.41-.01-2.58,1.1-2.64,2.51h0v20.38c.16,5.52,1.46,9.8,3.8,12.84,2.61,3.29,6.56,5,11.74,5s9.46-1.85,12.09-5.52c2.45-3.46,3.72-8.43,3.72-14.77v-10.24c-.03-1.56-1.31-2.82-2.87-2.81Z"/><path d="M25.18,32.16c.29.11.57.25.84.4-.14.18-.26.36-.36.56-.27-.15-.54-.29-.82-.42l.34-.54Z"/><path d="M18.64,40.18h0c.1-.21.22-.4.36-.58h0c-.29-.2-.59-.39-.9-.55h0l-.33.6h0c.3.15.59.32.86.53h.01Z"/><path d="M18.62,40.32h0c-.16.57-.4,1.12-.73,1.62h0l.63.48s.08.01.12,0c.04,0,.07-.03.07-.07h0s.01-.09,0-.14c.23-.45.42-.92.58-1.4h0c-.24-.13-.47-.3-.67-.49Z"/><path d="M18.43,37.77h0l-.42.56h0c.26.18.5.38.73.6h0v-.11l.09-.13.29-.37h0c-.21-.21-.44-.4-.69-.55Z"/><path d="M19.22,38.57h1v.42h-1v1.77h0v1.61h.68v-.14h1.8v.16h.67v-3.4h-1v-.42h1.06v-.6h-3.21v.6ZM21.7,41.65h-1.81v-.26h1.81v.26ZM21.35,39.55h.35v.58h0c-.25,0-.33,0-.33-.14l-.02-.44ZM20.62,38.55h.29v.4h-.29v-.4ZM20.62,39.55h.29v.84c-.02.15.09.28.24.3,0,0,.01,0,.02,0h.53v.23h-1.83v-.44c.14.06.27.15.37.26.23-.36.37-.77.39-1.19h0ZM20.14,39.91c-.03.15-.12.28-.25.36v-.72h.29c.01.12.01.24,0,.36h-.04Z"/><path d="M15.84,40.89c-.17-.4-.28-.83-.32-1.27h-.54c.03.33.03.67,0,1-.09.5-.35.95-.74,1.27h0c-.1-.3-.24-.59-.43-.85h.38v-.99c.17.03.33.12.45.25.2-.28.36-.58.46-.91h.93c-.05.24-.11.48-.18.71.18.05.36.12.53.2h0c.14-.43.25-.87.33-1.32h0l-.29-.25h-1.16c0-.07.08-.35.08-.39s.12,0,.12-.08c0-.05-.05-.09-.1-.09h0l-.58-.12c-.09.59-.27,1.17-.54,1.7v-.4h-.8v-.2s.08-.04.08-.08h-.61l.29-.33c.21.25.46.46.73.64h0c.09-.17.2-.32.34-.45-.25-.16-.48-.35-.69-.56h0s0-.07-.1-.08l-.64-.14h0c-.14.2-.3.39-.48.56-.2.21-.44.39-.7.51h0c.17.13.31.29.41.47v2.25l-.34.08.16.61c0,.06.05.1.1.11l.12-.07s1.08-.34,1.27-.38l.08.29.41-.14c.13.11.25.23.35.37h0c.43-.27.77-.68.95-1.16.18.43.44.82.77,1.14h0l.44-.37h.09c-.33-.45-.55-.98-.63-1.53ZM13.45,39.49v.31h-.64v-.27l.64-.04ZM12.91,38.74v.31h-.39l.39-.31ZM12.81,40.04h.64v.3h-.64v-.3ZM13.1,41.05l.16.32-.48.13v-.66h.79l-.47.21Z"/><path d="M9.49,30.86c.84,0,1.82-.38,1.82-1.4-.02-.55-.39-1.02-.92-1.17l-1.06-.24h-.23c-.38-.1-.44-.3-.44-.44,0-.4.53-.45.7-.45.53,0,.79.21.83.65v.1h1v-.12c0-.84-.71-1.4-1.76-1.4-.82,0-1.69.41-1.69,1.32.07.52.48.93,1,1l.58.14c.24.05.47.11.7.19.19.05.31.23.29.42,0,.34-.3.53-.81.53s-1-.11-1-.78v-.06h-.92v.11c0,.99.73,1.6,1.91,1.6Z"/><path d="M13.28,30.76h1v-3.53h1.37v-.84h-3.74v.83h1.37v3.54Z"/><path d="M20.38,28.57c-.1-1.2-1.16-2.09-2.36-1.99-1.2.1-2.09,1.16-1.99,2.36.13,1.12,1.1,1.96,2.23,1.92,1.16,0,2.11-.93,2.12-2.09v-.2ZM17,28.57c0-.68.31-1.48,1.21-1.48s1.21.8,1.21,1.48-.32,1.48-1.21,1.48-1.21-.79-1.21-1.48Z"/><path d="M24.97,27.78c0-.42-.14-1.4-1.57-1.4h-2v4.36h1v-1.58h1c.43.03.85-.11,1.18-.39.26-.26.4-.62.39-.99ZM23.3,28.35h-1v-1.16h1c.44,0,.64.18.64.59.01.3-.23.56-.53.57,0,0,0,0,0,0h-.11Z"/><path d="M27.03,30.76v-.93h-1v.93h1Z"/><path d="M26.78,29.46s.2-1.68.22-1.71v-1.3h-1v1.28l.19,1.73h.59Z"/><path d="M24.75,33.28c.31.12.6.28.88.46-.14.19-.27.4-.38.61-.27-.18-.55-.34-.85-.47l.35-.6Z"/><path d="M15.17,35.15c-.09.2-.19.38-.31.56-.13-.07-.28-.13-.42-.17-.06.38-.17.76-.34,1.11-.21-.13-.43-.23-.66-.31.32-.54.47-1.16.44-1.78v-.91h2.36v-.25h-2.59v-.5h.78v-.64h.81s0,.08-.11.11v.51h.48v-.89h.83s0,.08-.15.13h1.46v.41h-1.46v.21h2v.49h-.44c.06.09.11.18.15.27h.23v.48h-.65l.36.16s.09,0,.09.07,0,.07-.13.09c-.15.35-.33.69-.55,1,.08.15.26.42.36.42s.16-.49.17-.58c.16.14.35.25.56.32-.13,1-.41,1-.59,1-.45,0-.83-.49-1-.67-.27.26-.57.48-.9.66-.11-.17-.25-.32-.41-.44-.22.07-.45.1-.68.09,0-.19-.04-.38-.12-.55h.36c.07,0,0,0,0-.12l.07-.28ZM15.72,35.91s0,.18-.07.21c.35-.17.67-.39.95-.66-.19-.41-.31-.84-.37-1.29h-1.67v.39c.01.31-.01.61-.08.91.12-.18.22-.37.3-.57l.4.15v-.3h-.48v-.38h1.46v.38h-.44v.3l.43-.15c.11.17.19.36.23.56-.16.06-.3.14-.44.24-.04-.23-.11-.45-.22-.65v.86ZM16.93,33.44h-.1v.21h.64l-.14-.25-.4.04ZM16.86,34.17c.02.25.08.49.16.72.13-.23.24-.47.32-.72h-.48Z"/><path d="M24.58,36.2c.31-.56.55-1.16.7-1.78.17.19.39.33.63.42-.15.52-.33,1.04-.53,1.54.02.04.02.1,0,.14h-.07l-.73-.32Z"/><path d="M28.15,35.39v-.55h.46l-.11.09v.81h-1.28v.31h-.35v-1.3h.45l-.1.08v.36h.19v-.78h-.75v2h-.64v-2.36h1.39v-.25h-1.46v-.51h.8v-.24h-.54v-.53h.58v-.42h.78s0,.09-.12.11v.23h.49v-.39h.79c0,.06-.05.11-.11.11,0,0,0,0-.01,0v.25h.65v.53h-.65v.28h.81v.51h-1.46v.26h1.35v2.06c0,.49-.23.53-.87.53-.04-.23-.12-.46-.23-.67h.38c.11,0,.13,0,.13-.16v-1.33h-.75v.79l.18.18ZM27.42,33.05v.28h.5v-.28h-.5Z"/><path d="M23.18,35.45c-.37-.28-.69-.62-.95-1h1.56v-.65h-1.88v-.53h1.62v-.67h-1.62v-.36s.08-.08.09-.13c0,0,0-.08-.13-.08h-.77v.54h-1.6v.67h1.6v.53h-1.85v.66h1.45c-.38.62-.94,1.12-1.6,1.42h0c.22.14.4.33.53.56h0c.24-.11.46-.25.65-.43.27-.24.52-.51.73-.8v1.4h.79v-1.4c.13.18.27.35.43.5.3.3.63.56,1,.77h0c.14-.2.32-.37.52-.51h0c-.21-.14-.4-.31-.57-.49Z"/><path d="M12.88,34.45c.13,1-.57,1.92-1.57,2.05-.07,0-.14.01-.21.02-.57.05-1.12-.2-1.46-.65-.25-.47-.38-1-.36-1.54-.13-1,.57-1.92,1.57-2.05.08-.01.16-.02.25-.02,1.61,0,1.78,1.39,1.78,2.19ZM10.3,34.45c0,.17,0,1.4.79,1.4s.79-1.19.79-1.4,0-1.4-.79-1.4-.79,1.19-.79,1.4Z"/><path d="M8.86,36.45h-3.6c0-.89.6-1.26,1.74-2,.86-.56.86-.68.86-.89s-.43-.49-.7-.49c-.73,0-.8.49-.82.82h-1c-.02-.36.09-.72.32-1,.37-.4.9-.61,1.44-.59,1.22,0,1.66.64,1.66,1.24,0,.25-.08.5-.23.7-.44.41-.92.77-1.43,1.07-.2.11-.38.24-.55.39h2.31v.75Z"/></g></svg>