<?xml version="1.0" encoding="UTF-8"?><svg id="_レイヤー_2" xmlns="http://www.w3.org/2000/svg" viewBox="0 0 33.62 42.89"><defs><style>.cls-1{fill:none;stroke:#fff;stroke-linecap:round;stroke-linejoin:round;}</style></defs><g id="design"><polygon class="cls-1" points="21.16 25.43 12.46 25.43 4.5 28.83 4.5 33.31 29.12 33.31 29.12 28.83 21.16 25.43"/><polyline class="cls-1" points="4.5 33.31 .5 33.91 .5 42.39 33.12 42.39 33.12 33.91 29.12 33.31"/><polygon class="cls-1" points="21.16 25.43 12.46 25.43 14.42 12.09 19.12 12.09 21.16 25.43"/><path class="cls-1" d="M27.77,3.05h-8.71c-1.86,0-3.37,1.85-3.37,4.23v4.61h2.25v-3.57c0-1.18.91-2.15,2.08-2.24l7.75-.27v-2.76Z"/><line class="cls-1" x1="25.25" y1=".5" x2="25.25" y2="8.11"/></g></svg>