<?xml version="1.0" encoding="UTF-8"?><svg xmlns="http://www.w3.org/2000/svg" viewBox="0 0 40.02 21.43"><defs><style>.path-en-1{fill:none;stroke:#fff;stroke-miterlimit:10;stroke-width:1px;}.path-en-2{fill:#fff;}</style></defs><g><rect class="path-en-1" x=".35" y=".35" width="39.32" height="20.73" rx="10.37" ry="10.37"/><path class="path-en-2" d="M17.82,14.8v1.03h-5.75V6.52h5.74v1.03h-4.48v3.09h3.63v.99h-3.63v3.18h4.49Z"/><path class="path-en-2" d="M28.43,6.52v9.31h-.63c-.1,0-.18-.02-.25-.05-.07-.04-.13-.09-.2-.18l-5.39-7.02c0,.11.01.21.02.32,0,.1,0,.2,0,.29v6.64h-1.11V6.52h.65c.06,0,.1,0,.14,0s.07.02.1.03c.03.02.06.04.09.07s.06.06.1.11l5.39,7.01c0-.11-.02-.22-.02-.33,0-.11,0-.21,0-.3v-6.6h1.11Z"/></g></svg>