<?xml version="1.0" encoding="UTF-8"?><svg xmlns="http://www.w3.org/2000/svg" viewBox="0 0 39.32 20.73"><defs><style>.path-jp-1{fill:#fff;}.path-jp-2{fill:none;}</style></defs><g><path class="path-jp-1" d="M16.88,12.38c0,.52-.06.99-.19,1.4-.13.41-.32.76-.57,1.04-.25.28-.56.5-.92.65-.36.15-.78.23-1.25.23-.43,0-.87-.06-1.31-.18,0-.13.02-.25.03-.37.01-.12.02-.25.03-.37,0-.07.04-.13.08-.18s.12-.07.21-.07c.08,0,.18.02.31.06s.3.06.52.06c.29,0,.54-.04.77-.13.22-.09.41-.22.57-.4.15-.18.27-.41.35-.7s.12-.62.12-1.01v-6.12h1.26v6.1Z"/><path class="path-jp-1" d="M23.21,6.28c.59,0,1.1.07,1.54.21.44.14.8.33,1.08.58.29.25.5.55.64.91.14.36.21.75.21,1.19s-.08.83-.23,1.19c-.15.36-.37.67-.67.93-.29.26-.65.46-1.09.61-.43.15-.93.22-1.49.22h-1.5v3.48h-1.25V6.28h2.75ZM23.21,11.11c.36,0,.68-.05.95-.14.27-.1.51-.23.7-.4.19-.17.33-.38.43-.61.09-.24.14-.5.14-.79,0-.59-.18-1.06-.55-1.39s-.92-.5-1.67-.5h-1.5v3.83h1.5Z"/><rect class="path-jp-2" x="0" y="0" width="39.32" height="20.73" rx="10.37" ry="10.37"/></g></svg>